<?xml version="1.0" encoding="UTF-8"?>
<svg id="Layer_2" data-name="Layer 2" xmlns="http://www.w3.org/2000/svg" viewBox="0 0 349.56 89.12">
  <defs>
    <style>
      .cls-1 {
        fill: #fff;
      }

      .cls-2 {
        fill: #f89920;
      }

      .cls-3 {
        fill: #231f20;
      }
    </style>
  </defs>
  <g id="Layer_1-2" data-name="Layer 1">
    <g>
      <rect class="cls-2" x="185.68" width="163.89" height="89.12" rx="13.83" ry="13.83"/>
      <g>
        <path class="cls-1" d="M9.66,16.3V56.06H28.35v9.24H0V16.3H9.66Z"/>
        <path class="cls-1" d="M66.71,51.51h-26.39c1.17,4.39,4.46,6.58,9.87,6.58,3.45,0,6.07-1.17,7.84-3.5l7.28,4.2c-3.45,4.99-8.54,7.49-15.26,7.49-5.79,0-10.43-1.75-13.93-5.25s-5.25-7.91-5.25-13.23,1.73-9.61,5.18-13.16c3.41-3.55,7.84-5.32,13.3-5.32s9.4,1.77,12.67,5.32c3.36,3.55,5.04,7.93,5.04,13.16,0,.98-.12,2.22-.35,3.71Zm-26.53-7h17.85c-.51-2.29-1.55-4.04-3.12-5.25-1.56-1.21-3.42-1.82-5.57-1.82-2.43,0-4.43,.62-6.02,1.85-1.59,1.24-2.64,2.98-3.15,5.21Z"/>
        <path class="cls-1" d="M99.68,34.43v-4.13h9.03v35h-9.03v-4.13c-2.71,3.41-6.51,5.11-11.41,5.11s-8.68-1.77-12.04-5.32c-3.31-3.59-4.97-7.98-4.97-13.16s1.66-9.5,4.97-13.09c3.36-3.59,7.37-5.39,12.04-5.39,4.9,0,8.7,1.7,11.41,5.11Zm-16.66,20.51c1.82,1.82,4.13,2.73,6.93,2.73s5.11-.91,6.93-2.73c1.87-1.87,2.8-4.25,2.8-7.14s-.93-5.25-2.8-7.07c-1.82-1.87-4.13-2.8-6.93-2.8s-5.11,.93-6.93,2.8c-1.82,1.82-2.73,4.18-2.73,7.07s.91,5.27,2.73,7.14Z"/>
        <path class="cls-1" d="M134.68,47.59l14.49,17.71h-10.5l-12.74-15.89v15.89h-9.03V16.3h9.03v29.4l12.04-15.4h10.78l-14.07,17.29Z"/>
        <path class="cls-1" d="M159.67,40.25c0,1.49,2.12,2.78,6.37,3.85,1.49,.33,2.85,.71,4.06,1.16,1.21,.44,2.44,1.07,3.67,1.89,1.24,.82,2.21,1.9,2.91,3.25,.7,1.35,1.05,2.92,1.05,4.69,0,3.59-1.35,6.37-4.06,8.33-2.71,1.91-6.04,2.87-10.01,2.87-7.19,0-12.09-2.78-14.7-8.33l7.84-4.41c1.07,3.03,3.36,4.55,6.86,4.55,3.22,0,4.83-1,4.83-3.01,0-1.49-2.12-2.78-6.37-3.85-1.59-.42-2.94-.84-4.06-1.26s-2.33-1.04-3.64-1.85-2.3-1.87-2.97-3.15c-.68-1.28-1.01-2.79-1.01-4.51,0-3.45,1.26-6.16,3.78-8.12,2.57-2.01,5.74-3.01,9.52-3.01,2.85,0,5.44,.64,7.77,1.92,2.33,1.28,4.18,3.12,5.53,5.5l-7.7,4.2c-1.12-2.38-2.99-3.57-5.6-3.57-1.17,0-2.14,.27-2.91,.8-.77,.54-1.16,1.23-1.16,2.07Z"/>
      </g>
      <g>
        <path class="cls-3" d="M235.92,36.43V16.97h9.59v49h-9.59v-20.3h-18.2v20.3h-9.66V16.97h9.66v19.46h18.2Z"/>
        <path class="cls-3" d="M277.29,49.87V30.97h9.03v35h-9.03v-3.92c-2.15,3.27-5.62,4.9-10.43,4.9-3.83,0-7-1.28-9.52-3.85-2.47-2.61-3.71-6.16-3.71-10.64V30.97h9.03v20.37c0,2.29,.62,4.06,1.86,5.32,1.24,1.26,2.93,1.89,5.07,1.89,2.38,0,4.26-.73,5.64-2.21,1.38-1.47,2.06-3.63,2.06-6.47Z"/>
        <path class="cls-3" d="M314.95,29.99c4.71,0,8.73,1.8,12.04,5.39,3.36,3.59,5.04,7.96,5.04,13.09s-1.68,9.61-5.04,13.16c-3.27,3.55-7.28,5.32-12.04,5.32s-8.68-1.7-11.34-5.11v4.13h-9.03V16.97h9.03v18.13c2.66-3.41,6.44-5.11,11.34-5.11Zm-8.61,25.62c1.82,1.82,4.13,2.73,6.93,2.73s5.11-.91,6.93-2.73,2.8-4.25,2.8-7.14-.93-5.25-2.8-7.07c-1.82-1.87-4.13-2.8-6.93-2.8s-5.11,.93-6.93,2.8c-1.82,1.82-2.73,4.18-2.73,7.07s.91,5.27,2.73,7.14Z"/>
      </g>
    </g>
  </g>
</svg>